# Created by Kenney (www.kenney.nl)

mtllib log.mtl

g mergedBlocks

v 124.3244 -0.500016 3.609557E-16
v 124.3244 -0.353569 0.3535534
v 124.3244 -0.353569 -0.3535534
v 124.3244 -1.482063E-05 -0.5
v 124.3244 -1.482063E-05 0.5
v 124.3244 0.3535394 -0.3535534
v 124.3244 0.3535394 0.3535534
v 124.3244 0.4999864 3.609557E-16
v -4.214694E-08 -0.3535542 -0.3535534
v -5.960478E-08 -0.5000012 3.609557E-16
v 4.214694E-08 0.3535542 -0.3535534
v -1.290881E-22 -1.082883E-15 -0.5
v -4.214694E-08 -0.3535542 0.3535534
v 5.960478E-08 0.5000012 3.609557E-16
v 4.214694E-08 0.3535542 0.3535534
v -8.605874E-23 -7.219267E-16 0.5

vn 1 -1.192093E-07 0
vn -1.10135E-07 -0.9238792 -0.3826842
vn 4.561933E-08 0.3826827 -0.9238799
vn -1.10135E-07 -0.9238792 0.3826842
vn 1.10135E-07 0.9238792 -0.3826842
vn 1.10135E-07 0.9238792 0.3826842
vn -4.561933E-08 -0.3826827 0.9238799
vn -4.561933E-08 -0.3826827 -0.9238799
vn -1 1.192093E-07 0
vn 4.561933E-08 0.3826827 0.9238799

vt -3.609557E-16 -0.500016
vt -0.3535534 -0.3535691
vt 0.3535534 -0.3535691
vt 0.5 -1.482063E-05
vt -0.5 -1.482063E-05
vt 0.3535534 0.3535394
vt -0.3535534 0.3535394
vt -3.609557E-16 0.4999864
vt -124.3244 0.3535534
vt 4.214694E-08 0.3535534
vt -124.3244 -3.609557E-16
vt 5.960478E-08 -3.609557E-16
vt -4.214694E-08 0.3535542
vt 1.290881E-22 -1.082883E-15
vt -124.3244 0.3535394
vt -124.3244 -1.482063E-05
vt -124.3244 -0.3535534
vt 4.214694E-08 -0.3535534
vt -4.214694E-08 -0.3535534
vt -5.960478E-08 3.609557E-16
vt -124.3244 3.609557E-16
vt -4.214694E-08 0.3535534
vt -4.214694E-08 -0.3535542
vt -8.605874E-23 -7.219267E-16
vt 124.3244 -0.3535691
vt 124.3244 -1.482063E-05
vt 4.214694E-08 -0.3535542
vt -124.3244 -0.3535691
vt 3.609557E-16 -0.5000012
vt -0.3535534 -0.3535542
vt 0.3535534 -0.3535542
vt 0.5 -7.219267E-16
vt -0.5 -1.082883E-15
vt -0.3535534 0.3535542
vt 0.3535534 0.3535542
vt 3.609557E-16 0.5000012
vt 4.214694E-08 0.3535542
vt 124.3244 0.3535394

usemtl _defaultMat(Clone)

f 3/3/1 2/2/1 1/1/1
f 2/2/1 3/3/1 4/4/1
f 2/2/1 4/4/1 5/5/1
f 5/5/1 4/4/1 6/6/1
f 5/5/1 6/6/1 7/7/1
f 7/7/1 6/6/1 8/8/1
f 1/11/2 9/10/2 3/9/2
f 9/10/2 1/11/2 10/12/2
f 6/15/3 12/14/3 11/13/3
f 12/14/3 6/15/3 4/16/3
f 2/17/4 10/12/4 1/11/4
f 10/12/4 2/17/4 13/18/4
f 14/20/5 6/17/5 11/19/5
f 6/17/5 14/20/5 8/21/5
f 15/22/6 8/21/6 14/20/6
f 8/21/6 15/22/6 7/9/6
f 2/25/7 16/24/7 13/23/7
f 16/24/7 2/25/7 5/26/7
f 4/16/8 9/27/8 12/14/8
f 9/27/8 4/16/8 3/28/8
f 13/31/9 9/30/9 10/29/9
f 9/30/9 13/31/9 16/32/9
f 9/30/9 16/32/9 12/33/9
f 12/33/9 16/32/9 11/34/9
f 11/34/9 16/32/9 15/35/9
f 11/34/9 15/35/9 14/36/9
f 5/26/10 15/37/10 16/24/10
f 15/37/10 5/26/10 7/38/10

